<svg id="visual" viewBox="0 0 900 600" width="900" height="600" xmlns="http://www.w3.org/2000/svg" xmlns:xlink="http://www.w3.org/1999/xlink" version="1.1"><path d="M0 411L25 404.7C50 398.3 100 385.7 150 401C200 416.3 250 459.7 300 471.2C350 482.7 400 462.3 450 434.7C500 407 550 372 600 375.5C650 379 700 421 750 449.2C800 477.3 850 491.7 875 498.8L900 506L900 601L875 601C850 601 800 601 750 601C700 601 650 601 600 601C550 601 500 601 450 601C400 601 350 601 300 601C250 601 200 601 150 601C100 601 50 601 25 601L0 601Z" fill="#FCAF3C" stroke-linecap="round" stroke-linejoin="miter"></path></svg>